<svg xmlns:dc="http://purl.org/dc/elements/1.1/" xmlns:cc="http://creativecommons.org/ns#" xmlns:rdf="http://www.w3.org/1999/02/22-rdf-syntax-ns#" xmlns:svg="http://www.w3.org/2000/svg" xmlns="http://www.w3.org/2000/svg" xmlns:sodipodi="http://sodipodi.sourceforge.net/DTD/sodipodi-0.dtd" xmlns:inkscape="http://www.inkscape.org/namespaces/inkscape" version="1.1" x="0px" y="0px" viewBox="0 0 100 125"><g transform="translate(0,-952.36218)"><g transform="translate(-30.354322,597.33263)"><rect transform="matrix(0,1,-1,0,0,0)" style="" width="33.223507" height="15.489702" x="415.53632" y="-70.88945" ry="0.79029047" fill="#000000" fill-opacity="1" stroke="none"/><rect ry="0.79029042" y="397.04755" x="44.051094" height="15.489702" width="77.085121" style="" fill="#000000" fill-opacity="1" stroke="none"/><rect ry="1.9691653" y="394.40723" x="123.80429" height="20.770283" width="3.9383307" style="" fill="#000000" fill-opacity="1" stroke="none"/><rect ry="1.9691654" y="394.40723" x="37.251732" height="20.770283" width="3.9383309" style="" fill="#000000" fill-opacity="1" stroke="none"/><rect transform="matrix(0,1,-1,0,0,0)" style="" width="33.223507" height="15.489702" x="360.96039" y="-113.41175" ry="0.79029053" fill="#000000" fill-opacity="1" stroke="none"/><rect transform="matrix(0,1,-1,0,0,0)" style="" width="21.169935" height="15.489702" x="415.29315" y="-108.05467" ry="0.79029053" fill="#000000" fill-opacity="1" stroke="none"/><rect transform="matrix(0,1,-1,0,0,0)" style="" width="3.9383309" height="20.770283" x="439.21902" y="-110.69496" ry="1.9691654" fill="#000000" fill-opacity="1" stroke="none"/></g></g><text x="0" y="115" fill="#000000" font-size="5px" font-weight="bold" font-family="'Helvetica Neue', Helvetica, Arial-Unicode, Arial, Sans-serif">Created by Quentin B. </text><text x="0" y="120" fill="#000000" font-size="5px" font-weight="bold" font-family="'Helvetica Neue', Helvetica, Arial-Unicode, Arial, Sans-serif">from the Noun Project</text></svg>